# xmcd
#
# Track frame offsets:
#	150
#	20625
#	35400
#	53250
#	69975
#	83400
#	97500
#	112650
#	130575
#	146775
#	160125
#	177450
#	194550
#	208500
#	222750
#	239025
#	254475
#	268350
#
# Disc length: 3802 seconds
#
# Revision: 1
# Processed by: cddbd v1.5.1PL0 Copyright (c) Steve Scherf et al.
# Submitted via: audiograbber 1.83.01
#
DISCID=f70ed812
DTITLE=v - CSZ205
DYEAR=1900
DGENRE=Karaoke Country
TTITLE0=Shania Twain - Rock This Country
TTITLE1=Toby Keith - How Do You LIke Me Now
TTITLE2=Jessica Andrews - Unbreakable Heart
TTITLE3=Kenny Rogers - Buy Me A Rose
TTITLE4=Garth Brooks - DoWhat You Gotta Do
TTITLE5=Faith Hill - Way You Love Me, The
TTITLE6=George Strait - Best Day, The
TTITLE7=Vince gill - Let's Make Sure WE Kiss Goodbye
TTITLE8=Kenny Chesney - What I Need T o Do 
TTITLE9=Tracy Lawrence - Lessons Learned
TTITLE10=Trisha Yearwood - Real Live Woman
TTITLE11=Phil Vassar - Carlene
TTITLE12=Clint Black and Steve Wariner - Been There
TTITLE13=Jim Reeves - What I Need
TTITLE14=Montgomery Gentry - Daddy Won't Sell The Farm
TTITLE15=Steve Holy  - Don't Make Me Beg
TTITLE16=Yankee Grey - Another Nine Minutes
TTITLE17=Sammy Kershaw - Me and Maxine
EXTD=Country Starz
EXTT0=
EXTT1=
EXTT2=
EXTT3=
EXTT4=
EXTT5=
EXTT6=
EXTT7=
EXTT8=
EXTT9=
EXTT10=
EXTT11=
EXTT12=
EXTT13=
EXTT14=
EXTT15=
EXTT16=
EXTT17=
PLAYORDER=
